<svg width="22" height="16" viewBox="0 0 22 16" fill="none" xmlns="http://www.w3.org/2000/svg">
<path d="M6.65995 2.41586C7.0277 2.05138 7.03034 1.4578 6.66586 1.09005C6.30139 0.722305 5.7078 0.719657 5.34005 1.08414L3.09664 3.30762C2.25167 4.14505 1.56108 4.82949 1.07132 5.43932C0.562034 6.07348 0.193369 6.71716 0.0948863 7.4898C0.0517046 7.82858 0.0517046 8.17142 0.0948862 8.5102C0.193369 9.28284 0.562034 9.92652 1.07132 10.5607C1.56108 11.1705 2.25167 11.855 3.09665 12.6924L5.34005 14.9159C5.7078 15.2803 6.30138 15.2777 6.66586 14.9099C7.03034 14.5422 7.02769 13.9486 6.65995 13.5841L4.45624 11.4C3.56187 10.5136 2.94837 9.90353 2.53324 9.38662C2.39833 9.21863 2.29307 9.07075 2.21135 8.9375H21C21.5178 8.9375 21.9375 8.51777 21.9375 8C21.9375 7.48223 21.5178 7.0625 21 7.0625H2.21135C2.29308 6.92925 2.39833 6.78137 2.53324 6.61338C2.94837 6.09647 3.56187 5.48642 4.45624 4.6L6.65995 2.41586Z" fill="#2D264B"/>
</svg>
