<svg width="20" height="20" viewBox="0 0 20 20" fill="none" xmlns="http://www.w3.org/2000/svg">
<path fill-rule="evenodd" clip-rule="evenodd" d="M10.0377 1.875C11.5682 1.87499 12.7678 1.87499 13.7196 1.97811C14.6909 2.08334 15.4779 2.30194 16.1498 2.79013C16.5566 3.08567 16.9143 3.44341 17.2099 3.8502C17.6981 4.52213 17.9167 5.30912 18.0219 6.2804C18.125 7.23216 18.125 8.43187 18.125 9.96227V10.0378C18.125 11.5682 18.125 12.7678 18.0219 13.7196C17.9167 14.6909 17.6981 15.4779 17.2099 16.1498C16.9143 16.5566 16.5566 16.9143 16.1498 17.2099C15.4779 17.6981 14.6909 17.9167 13.7196 18.0219C12.7678 18.125 11.5681 18.125 10.0377 18.125H9.96221C8.4318 18.125 7.23216 18.125 6.2804 18.0219C5.30912 17.9167 4.52213 17.6981 3.8502 17.2099C3.44341 16.9143 3.08567 16.5566 2.79013 16.1498C2.30194 15.4779 2.08334 14.6909 1.97811 13.7196C1.87499 12.7678 1.87499 11.5682 1.875 10.0377V9.96229C1.87499 8.43185 1.87499 7.23217 1.97811 6.2804C2.08334 5.30912 2.30194 4.52213 2.79013 3.8502C3.08568 3.44341 3.44341 3.08568 3.8502 2.79013C4.52213 2.30194 5.30912 2.08334 6.2804 1.97811C7.23218 1.87499 8.43184 1.87499 9.96228 1.875H10.0377ZM10.625 5.83333C10.625 5.48816 10.3452 5.20833 10 5.20833C9.65482 5.20833 9.375 5.48816 9.375 5.83333V14.1667C9.375 14.5118 9.65482 14.7917 10 14.7917C10.3452 14.7917 10.625 14.5118 10.625 14.1667V5.83333ZM13.9583 9.16667C13.9583 8.82149 13.6785 8.54167 13.3333 8.54167C12.9882 8.54167 12.7083 8.82149 12.7083 9.16667V14.1667C12.7083 14.5118 12.9882 14.7917 13.3333 14.7917C13.6785 14.7917 13.9583 14.5118 13.9583 14.1667V9.16667ZM7.29167 10.8333C7.29167 10.4882 7.01184 10.2083 6.66667 10.2083C6.32149 10.2083 6.04167 10.4882 6.04167 10.8333V14.1667C6.04167 14.5118 6.32149 14.7917 6.66667 14.7917C7.01184 14.7917 7.29167 14.5118 7.29167 14.1667V10.8333Z" fill="#0044C0"/>
</svg>
