<svg width="15" height="15" viewBox="0 0 15 15" fill="none" xmlns="http://www.w3.org/2000/svg">
<path fill-rule="evenodd" clip-rule="evenodd" d="M7.5 3.90625C6.20558 3.90625 5.15625 4.95558 5.15625 6.25C5.15625 7.54442 6.20558 8.59375 7.5 8.59375C8.79442 8.59375 9.84375 7.54442 9.84375 6.25C9.84375 4.95558 8.79442 3.90625 7.5 3.90625ZM6.09375 6.25C6.09375 5.47335 6.72335 4.84375 7.5 4.84375C8.27665 4.84375 8.90625 5.47335 8.90625 6.25C8.90625 7.02665 8.27665 7.65625 7.5 7.65625C6.72335 7.65625 6.09375 7.02665 6.09375 6.25Z" fill="#0044C0"/>
<path fill-rule="evenodd" clip-rule="evenodd" d="M7.5 0.15625C4.44791 0.15625 2.03125 2.80798 2.03125 6.00543C2.03125 7.03089 2.54069 8.2384 3.18165 9.37158C3.83298 10.5231 4.6643 11.6726 5.39315 12.6021L5.41746 12.6331C5.77321 13.0868 6.07627 13.4733 6.37015 13.7402C6.69077 14.0315 7.04434 14.2222 7.5 14.2222C7.95566 14.2222 8.30923 14.0315 8.62985 13.7402C8.92373 13.4733 9.22679 13.0868 9.58255 12.6331L9.60685 12.6021C10.3357 11.6726 11.167 10.5231 11.8184 9.37158C12.4593 8.2384 12.9688 7.03089 12.9688 6.00543C12.9688 2.80798 10.5521 0.15625 7.5 0.15625ZM2.96875 6.00543C2.96875 3.25982 5.02924 1.09375 7.5 1.09375C9.97076 1.09375 12.0312 3.25982 12.0312 6.00543C12.0312 6.77199 11.6315 7.79773 11.0023 8.91002C10.3836 10.004 9.58389 11.1121 8.86914 12.0235C8.48229 12.5169 8.22758 12.8391 7.99949 13.0463C7.79147 13.2353 7.65261 13.2847 7.5 13.2847C7.34739 13.2847 7.20853 13.2353 7.00051 13.0463C6.77242 12.8391 6.51771 12.5169 6.13086 12.0235C5.41611 11.1121 4.61643 10.004 3.99766 8.91002C3.36851 7.79773 2.96875 6.77199 2.96875 6.00543Z" fill="#0044C0"/>
</svg>
