<svg width="15" height="15" viewBox="0 0 15 15" fill="none" xmlns="http://www.w3.org/2000/svg">
<path fill-rule="evenodd" clip-rule="evenodd" d="M10.9147 1.48358C10.2009 1.40624 9.30112 1.40624 8.15328 1.40625H6.84672C5.69888 1.40624 4.79913 1.40624 4.0853 1.48358C3.35684 1.5625 2.7666 1.72645 2.26265 2.0926C1.95756 2.31426 1.68926 2.58256 1.4676 2.88765C1.36654 3.02673 1.28001 3.17363 1.20617 3.32998C0.980052 3.80878 0.879194 4.36398 0.83004 5.02605C0.781247 5.68327 0.781248 6.4889 0.78125 7.48223V7.52828C0.781245 8.67612 0.781241 9.57587 0.85858 10.2897C0.937504 11.0182 1.10145 11.6084 1.4676 12.1124C1.68926 12.4174 1.95756 12.6857 2.26265 12.9074C2.7666 13.2735 3.35684 13.4375 4.0853 13.5164C4.79912 13.5938 5.69885 13.5938 6.84666 13.5938H8.1533C9.3011 13.5938 10.2009 13.5938 10.9147 13.5164C11.6432 13.4375 12.2334 13.2735 12.7374 12.9074C13.0424 12.6857 13.3107 12.4174 13.5324 12.1124C13.8985 11.6084 14.0625 11.0182 14.1414 10.2897C14.2188 9.57588 14.2188 8.67615 14.2188 7.52834V7.48181C14.2188 6.4817 14.2188 5.67179 14.1689 5.0119C14.1187 4.34691 14.0155 3.78987 13.7841 3.30966C13.7124 3.16084 13.629 3.02065 13.5324 2.88765C13.3107 2.58256 13.0424 2.31426 12.7374 2.0926C12.2334 1.72645 11.6432 1.5625 10.9147 1.48358ZM2.8137 2.85105C3.1312 2.62037 3.53758 2.48591 4.18628 2.41563C4.84375 2.34439 5.69277 2.34375 6.875 2.34375H8.125C9.30723 2.34375 10.1563 2.34439 10.8137 2.41563C11.4624 2.48591 11.8688 2.62037 12.1863 2.85105C12.4117 3.01481 12.6099 3.213 12.7737 3.43837L11.588 4.62413C10.5369 5.67516 9.78129 6.42939 9.12953 6.92667C8.48859 7.41569 8.00351 7.61183 7.5 7.61183C6.99649 7.61183 6.51141 7.41569 5.87047 6.92667C5.21871 6.42939 4.46308 5.67516 3.41204 4.62413L2.22628 3.43837C2.39008 3.213 2.5883 3.01481 2.8137 2.85105ZM13.1483 4.38961C13.1861 4.58975 13.2141 4.81807 13.2341 5.08253C13.2809 5.70308 13.2812 6.47802 13.2812 7.5C13.2812 8.68223 13.2806 9.53125 13.2094 10.1887C13.1391 10.8374 13.0046 11.2438 12.774 11.5613C12.6101 11.7868 12.4118 11.9851 12.1863 12.149C11.8688 12.3796 11.4624 12.5141 10.8137 12.5844C10.1563 12.6556 9.30723 12.6562 8.125 12.6562H6.875C5.69277 12.6562 4.84375 12.6556 4.18628 12.5844C3.53758 12.5141 3.1312 12.3796 2.8137 12.149C2.58819 11.9851 2.38989 11.7868 2.22605 11.5613C1.99537 11.2438 1.86091 10.8374 1.79063 10.1887C1.71939 9.53125 1.71875 8.68223 1.71875 7.5C1.71875 6.48528 1.71904 5.71402 1.76497 5.09546C1.78501 4.82553 1.81332 4.59303 1.85169 4.38961L2.77448 5.31239C3.79465 6.33258 4.59414 7.13207 5.3018 7.672C6.02613 8.22465 6.70909 8.54933 7.5 8.54933C8.29091 8.54933 8.97387 8.22465 9.6982 7.672C10.4059 7.13207 11.2053 6.33258 12.2255 5.31241L13.1483 4.38961Z" fill="#0044C0"/>
</svg>
