<svg width="15" height="15" viewBox="0 0 15 15" fill="none" xmlns="http://www.w3.org/2000/svg">
<path fill-rule="evenodd" clip-rule="evenodd" d="M5.06988 1.85941C4.41232 1.2552 3.4016 1.2552 2.74405 1.85941C2.71712 1.88415 2.68837 1.91291 2.65104 1.95024L2.09011 2.51118C1.52566 3.07562 1.28871 3.88932 1.46187 4.66856C2.44436 9.08972 5.89719 12.5426 10.3184 13.525C11.0976 13.6982 11.9113 13.4613 12.4757 12.8968L13.0366 12.3359C13.074 12.2986 13.1028 12.2698 13.1275 12.2429C13.7317 11.5853 13.7317 10.5746 13.1275 9.91704C13.1028 9.89009 13.074 9.86133 13.0366 9.82397L12.1183 8.90569C11.4808 8.26812 10.5179 8.08578 9.6914 8.44607C9.21821 8.65233 8.66699 8.54794 8.30199 8.18293L6.80398 6.68493C6.43898 6.31993 6.33459 5.76871 6.54085 5.29552C6.90114 4.46898 6.71879 3.50615 6.08123 2.86859L5.1629 1.95025C5.12556 1.91291 5.09681 1.88415 5.06988 1.85941ZM3.37837 2.54973C3.67725 2.27509 4.13667 2.27509 4.43556 2.54973C4.44588 2.55921 4.4594 2.57258 4.50694 2.62013L5.41832 3.5315C5.78332 3.8965 5.88771 4.44772 5.68145 4.92091C5.32116 5.74745 5.5035 6.71028 6.14107 7.34784L7.63907 8.84585C8.27664 9.48341 9.23947 9.66576 10.066 9.30547C10.5392 9.09921 11.0904 9.2036 11.4554 9.5686L12.3668 10.48C12.4143 10.5275 12.4277 10.541 12.4372 10.5514C12.7118 10.8502 12.7118 11.3097 12.4372 11.6085C12.4277 11.6189 12.4143 11.6324 12.3668 11.6799L11.8128 12.2339C11.475 12.5717 10.9881 12.7135 10.5217 12.6099C6.4559 11.7063 3.28057 8.53102 2.37705 4.46519C2.27342 3.99885 2.41522 3.51189 2.75302 3.17409L3.30698 2.62013C3.35452 2.57258 3.36805 2.55921 3.37837 2.54973Z" fill="#0044C0"/>
</svg>
