<svg width="16" height="15" viewBox="0 0 16 15" fill="none" xmlns="http://www.w3.org/2000/svg">
<path d="M14.1665 4.60269C14.5518 2.61107 12.7879 0.862557 10.7788 1.24452L5.01035 2.34117C3.75641 2.57956 2.75358 3.52047 2.43497 4.74307C1.79887 7.18406 4.08253 9.41497 6.53458 8.70016C6.60229 8.68042 6.6652 8.74278 6.64529 8.80991C5.92421 11.2406 8.1747 13.5044 10.6372 12.8738C11.8705 12.558 12.8197 11.5639 13.0602 10.3209L14.1665 4.60269Z" fill="white"/>
<path d="M3.1175 10.2085C3.30216 10.0254 3.30216 9.72865 3.1175 9.54559C2.93283 9.36253 2.63343 9.36253 2.44876 9.54559L1.55711 10.4295C1.37244 10.6125 1.37244 10.9093 1.55711 11.0924C1.74177 11.2754 2.04118 11.2754 2.22585 11.0924L3.1175 10.2085Z" fill="white"/>
<path d="M5.34662 9.98753C5.53129 10.1706 5.53129 10.4674 5.34662 10.6504L4.45497 11.5343C4.27031 11.7174 3.9709 11.7174 3.78623 11.5343C3.60157 11.3513 3.60157 11.0545 3.78623 10.8714L4.67789 9.98753C4.86255 9.80447 5.16196 9.80447 5.34662 9.98753Z" fill="white"/>
<path d="M5.79245 12.8602C5.97712 12.6771 5.97712 12.3803 5.79245 12.1972C5.60778 12.0142 5.30838 12.0142 5.12371 12.1972L4.23206 13.0811C4.04739 13.2642 4.04739 13.561 4.23206 13.744C4.41673 13.9271 4.71613 13.9271 4.9008 13.744L5.79245 12.8602Z" fill="white"/>
</svg>
