<svg width="20" height="20" viewBox="0 0 20 20" fill="none" xmlns="http://www.w3.org/2000/svg">
<path fill-rule="evenodd" clip-rule="evenodd" d="M6.52967 3.56295C7.62198 0.201184 12.378 0.201184 13.4703 3.56295C13.7914 4.55135 14.7125 5.22055 15.7518 5.22055C19.2866 5.22055 20.7562 9.74378 17.8965 11.8215C17.0558 12.4323 16.7039 13.5151 17.0251 14.5035C18.1174 17.8653 14.2697 20.6608 11.41 18.5831C10.5692 17.9722 9.43073 17.9722 8.58994 18.5831C5.73025 20.6608 1.88256 17.8653 2.97487 14.5035C3.29602 13.5151 2.9442 12.4323 2.10342 11.8215C-0.756275 9.74378 0.713413 5.22055 4.24819 5.22055C5.28745 5.22055 6.20852 4.55135 6.52967 3.56295ZM12.2586 6.37113C12.1478 6.0442 11.793 5.86895 11.4661 5.97969C11.1392 6.09044 10.9639 6.44524 11.0747 6.77217C11.4339 7.83272 12.4528 8.52801 13.577 8.52801C13.9222 8.52801 14.202 8.24819 14.202 7.90301C14.202 7.55783 13.9222 7.27801 13.577 7.27801C12.9608 7.27801 12.4372 6.89832 12.2586 6.37113Z" fill="#0044C0"/>
</svg>
