<svg width="10" height="10" viewBox="0 0 10 10" fill="none" xmlns="http://www.w3.org/2000/svg">
<g clip-path="url(#clip0_1_379)">
<path fill-rule="evenodd" clip-rule="evenodd" d="M3.26483 1.78149C3.81099 0.100607 6.18899 0.100607 6.73514 1.78149C6.89572 2.27569 7.35625 2.61029 7.87589 2.61029C9.64327 2.61029 10.3781 4.87191 8.94827 5.91075C8.52788 6.21618 8.35197 6.75757 8.51255 7.25177C9.0587 8.93266 7.13485 10.3304 5.70501 9.29157C5.28462 8.98614 4.71536 8.98614 4.29497 9.29157C2.86512 10.3304 0.94128 8.93266 1.48743 7.25177C1.64801 6.75757 1.4721 6.21618 1.05171 5.91075C-0.378139 4.87191 0.356705 2.61029 2.12409 2.61029C2.64372 2.61029 3.10426 2.27569 3.26483 1.78149ZM6.12929 3.18558C6.07391 3.02212 5.89651 2.93449 5.73305 2.98986C5.56958 3.04523 5.48195 3.22264 5.53733 3.3861C5.71695 3.91638 6.2264 4.26402 6.7885 4.26402C6.96109 4.26402 7.101 4.12411 7.101 3.95152C7.101 3.77893 6.96109 3.63902 6.7885 3.63902C6.48038 3.63902 6.21857 3.44918 6.12929 3.18558Z" fill="#968702"/>
</g>
<defs>
<clipPath id="clip0_1_379">
<rect width="10" height="10" fill="white"/>
</clipPath>
</defs>
</svg>
