<svg width="20" height="20" viewBox="0 0 20 20" fill="none" xmlns="http://www.w3.org/2000/svg">
<path fill-rule="evenodd" clip-rule="evenodd" d="M4.21756 2.46245C4.30518 2.39879 4.39579 2.34022 4.48995 2.28634C4.52019 2.35371 4.56297 2.41681 4.61829 2.47213C5.69375 3.54755 6.53791 4.39037 7.28205 4.98595C8.0354 5.5889 8.7409 5.98467 9.55376 6.11342C10.0504 6.19207 10.5563 6.19207 11.0529 6.11342C11.8431 5.98827 12.5316 5.61087 13.2614 5.03613C13.9819 4.46873 14.7907 3.669 15.8089 2.65158C15.8416 2.61894 15.8699 2.58358 15.8938 2.54623C16.2017 2.78607 16.4746 3.06812 16.7042 3.38425C17.5 4.47952 17.5 6.04191 17.5 9.16669V10.8334C17.5 13.9581 17.5 15.5205 16.7042 16.6158C16.4472 16.9695 16.1362 17.2806 15.7824 17.5376C14.6872 18.3334 13.1248 18.3334 10 18.3334C6.87522 18.3334 5.31283 18.3334 4.21756 17.5376C3.86383 17.2806 3.55276 16.9695 3.29576 16.6158C2.5 15.5205 2.5 13.9581 2.5 10.8334V9.16669C2.5 6.04191 2.5 4.47952 3.29576 3.38425C3.55276 3.03052 3.86383 2.71945 4.21756 2.46245ZM6.66667 7.70835C6.32149 7.70835 6.04167 7.98818 6.04167 8.33335C6.04167 8.67853 6.32149 8.95835 6.66667 8.95835H13.3333C13.6785 8.95835 13.9583 8.67853 13.9583 8.33335C13.9583 7.98818 13.6785 7.70835 13.3333 7.70835H6.66667ZM6.66667 11.0417C6.32149 11.0417 6.04167 11.3215 6.04167 11.6667C6.04167 12.0119 6.32149 12.2917 6.66667 12.2917H13.3333C13.6785 12.2917 13.9583 12.0119 13.9583 11.6667C13.9583 11.3215 13.6785 11.0417 13.3333 11.0417H6.66667ZM6.66667 14.375C6.32149 14.375 6.04167 14.6548 6.04167 15C6.04167 15.3452 6.32149 15.625 6.66667 15.625H13.3333C13.6785 15.625 13.9583 15.3452 13.9583 15C13.9583 14.6548 13.6785 14.375 13.3333 14.375H6.66667Z" fill="#0044C0"/>
<path d="M10 1.66669C12.2499 1.66669 13.6899 1.66669 14.7286 1.96375C13.795 2.89493 13.0967 3.57481 12.4881 4.0541C11.8468 4.55914 11.3552 4.79996 10.8574 4.87881C10.4903 4.93695 10.1164 4.93695 9.74931 4.87881C9.23719 4.7977 8.73182 4.54522 8.06314 4.01004C7.44053 3.51172 6.72418 2.80871 5.76383 1.84975C6.75728 1.66669 8.08535 1.66669 10 1.66669Z" fill="#0044C0"/>
</svg>
