<svg width="20" height="20" viewBox="0 0 20 20" fill="none" xmlns="http://www.w3.org/2000/svg">
<path fill-rule="evenodd" clip-rule="evenodd" d="M5.24647 4.39184C5.54529 2.03261 7.55956 0.208313 9.99991 0.208313C12.4434 0.208313 14.4597 2.03728 14.7545 4.4009C15.8913 4.44552 16.7514 4.5721 17.4753 4.97179C18.095 5.31388 18.6269 5.78655 19.0374 6.35205C18.733 6.64899 18.4094 6.96888 18.3767 7.00159L15.3494 10.0288C13.9481 11.4302 12.9405 12.4359 12.0715 13.0989C11.2169 13.7509 10.5702 14.0124 9.89882 14.0124C9.22747 14.0124 8.5807 13.7509 7.72611 13.0989C6.8571 12.4359 5.84959 11.4302 4.44821 10.0288L0.883523 6.46415C1.30374 5.84891 1.86434 5.33625 2.52449 4.97179C3.24561 4.57368 4.10856 4.43897 5.24647 4.39184ZM6.51398 4.37074C6.65873 4.37107 6.80784 4.37185 6.96113 4.37266C7.1771 4.3738 7.40138 4.37498 7.63353 4.37498H12.371C12.7707 4.37498 13.142 4.37498 13.487 4.37697C13.1926 2.71806 11.7434 1.45831 9.99991 1.45831C8.25865 1.45831 6.81088 2.71491 6.51398 4.37074Z" fill="#0044C0"/>
<path d="M19.6493 7.49676L16.1995 10.9465C14.8393 12.3068 13.7733 13.3728 12.8298 14.0927C11.864 14.8295 10.9534 15.2624 9.89882 15.2624C8.84428 15.2624 7.93366 14.8295 6.96789 14.0927C6.02435 13.3728 4.95838 12.3068 3.59819 10.9466L0.300446 7.64884C0.140491 8.17377 0.0969402 8.74678 0.114072 9.41252C0.134432 10.2037 0.243615 11.1863 0.383197 12.4425L0.389363 12.498C0.503413 13.5244 0.593016 14.3309 0.716293 14.978C0.842066 15.6382 1.01077 16.1802 1.30766 16.6659C1.79771 17.4675 2.51262 18.1074 3.36346 18.5059C3.87892 18.7473 4.43623 18.8552 5.1063 18.9073C5.76301 18.9583 6.57434 18.9583 7.60702 18.9583H12.3926C13.4252 18.9583 14.2368 18.9583 14.8935 18.9073C15.5636 18.8552 16.1209 18.7473 16.6364 18.5059C17.4872 18.1074 18.2021 17.4675 18.6922 16.6659C18.9891 16.1802 19.1578 15.6382 19.2835 14.978C19.4068 14.331 19.4964 13.5246 19.6104 12.4983L19.6166 12.4425C19.7562 11.1866 19.8654 10.2035 19.8858 9.41252C19.9046 8.68193 19.8503 8.06301 19.6493 7.49676Z" fill="#0044C0"/>
</svg>
